PathFileType	4	(X/Y/Z)	output.trc
DataRate	CameraRate	NumFrames	NumMarkers	Units	OrigDataRate	OrigDataStartFrame	OrigNumFrames
100	100	12	23	m	100	2944	4710
Frame#	Time	C7			T8			EL			EM			US			RS			AA			Fore_Clus_1			Fore_Clus_2			Fore_Clus_3			Fore_Clus_4			Hum_Clus_1			Hum_Clus_2			Hum_Clus_3			Hum_Clus_4			Thor_Clus_1			Thor_Clus_2			Thor_Clus_3			Thor_Clus_4			IJ			PX			GH			Thor_Clus_5		
		X1	Y1	Z1	X2	Y2	Z2	X3	Y3	Z3	X4	Y4	Z4	X5	Y5	Z5	X6	Y6	Z6	X7	Y7	Z7	X8	Y8	Z8	X9	Y9	Z9	X10	Y10	Z10	X11	Y11	Z11	X12	Y12	Z12	X13	Y13	Z13	X14	Y14	Z14	X15	Y15	Z15	X16	Y16	Z16	X17	Y17	Z17	X18	Y18	Z18	X19	Y19	Z19	X20	Y20	Z20	X21	Y21	Z21	X22	Y22	Z22	X23	Y23	Z23
2943	29.430000	-0.126875	1.420146	-0.137522	-0.160610	1.205380	-0.192456	-0.217616	1.056183	0.068081	-0.190327	1.041946	0.011605	-0.018433	1.017362	0.201669	0.000278	1.059836	0.179961	-0.231263	1.339329	0.000732	-0.072561	1.037332	0.201469	-0.027143	1.036239	0.231732	-0.019436	1.060753	0.220961	-0.060561	1.077084	0.184017	-0.214625	1.151636	0.098784	-0.262408	1.149334	0.062222	-0.274865	1.211741	0.056698	-0.224852	1.223760	0.085303	0.010240	1.306895	-0.043293	-0.017018	1.255784	0.018235	-0.022636	1.303869	-0.013424	0.030739	1.259902	-0.025143	-0.053375	1.333874	-0.072782	-0.017415	1.136885	-0.035799	-0.218876	1.313664	-0.019337	-0.026179	1.276332	0.010031
2944	29.440000	-0.126666	1.420163	-0.137493	-0.160404	1.205410	-0.192475	-0.218111	1.056010	0.067595	-0.190582	1.041877	0.011210	-0.019938	1.013403	0.201962	-0.000533	1.055785	0.180689	-0.231103	1.339330	0.000715	-0.073844	1.034211	0.201729	-0.028547	1.032168	0.232182	-0.020361	1.056695	0.221503	-0.061115	1.073919	0.184562	-0.215075	1.151420	0.098574	-0.262677	1.149246	0.061645	-0.275086	1.211595	0.056294	-0.225183	1.223549	0.085210	0.010459	1.306853	-0.043281	-0.016892	1.255766	0.018268	-0.022490	1.303847	-0.013391	0.030877	1.259866	-0.025105	-0.053194	1.333873	-0.072746	-0.017262	1.136874	-0.035788	-0.218667	1.313704	-0.019201	-0.026025	1.276313	0.010048
2945	29.450000	-0.126466	1.420164	-0.137469	-0.160196	1.205419	-0.192488	-0.218603	1.055835	0.067105	-0.190829	1.041809	0.010813	-0.021521	1.009320	0.202217	-0.001406	1.051597	0.181397	-0.230944	1.339318	0.000700	-0.075121	1.031003	0.201935	-0.029936	1.027985	0.232597	-0.021419	1.052402	0.222181	-0.061730	1.070567	0.185152	-0.215524	1.151135	0.098370	-0.262827	1.149193	0.060986	-0.275239	1.211407	0.055831	-0.225461	1.223366	0.085127	0.010686	1.306895	-0.043207	-0.016751	1.255737	0.018299	-0.022347	1.303823	-0.013359	0.031040	1.259844	-0.025061	-0.053015	1.333863	-0.072713	-0.017100	1.136858	-0.035769	-0.218449	1.313744	-0.019052	-0.025874	1.276286	0.010073
2946	29.460000	-0.126273	1.420152	-0.137448	-0.159988	1.205410	-0.192491	-0.219089	1.055659	0.066615	-0.191070	1.041741	0.010418	-0.023189	1.005116	0.202429	-0.002348	1.047271	0.182082	-0.230785	1.339294	0.000689	-0.076420	1.027519	0.202115	-0.031529	1.023600	0.232920	-0.022567	1.048006	0.222865	-0.062425	1.067085	0.185791	-0.216028	1.150854	0.098175	-0.263179	1.149081	0.060633	-0.275497	1.211336	0.055507	-0.225757	1.223177	0.085061	0.010877	1.306816	-0.043154	-0.016610	1.255708	0.018327	-0.022195	1.303801	-0.013311	0.031202	1.259799	-0.025016	-0.052837	1.333846	-0.072680	-0.016930	1.136839	-0.035742	-0.218223	1.313783	-0.018893	-0.025697	1.276268	0.010107
2947	29.470000	-0.126080	1.420134	-0.137426	-0.159777	1.205395	-0.192493	-0.219572	1.055481	0.066125	-0.191305	1.041670	0.010026	-0.024942	1.000796	0.202587	-0.003364	1.042814	0.182732	-0.230624	1.339265	0.000679	-0.077854	1.023984	0.202289	-0.032893	1.019094	0.233030	-0.023789	1.043339	0.223517	-0.063237	1.063440	0.186460	-0.216506	1.150599	0.097988	-0.263548	1.148977	0.060254	-0.275838	1.211339	0.055523	-0.226120	1.222928	0.084999	0.011056	1.306788	-0.043102	-0.016329	1.255718	0.018361	-0.022040	1.303764	-0.013239	0.031370	1.259759	-0.024982	-0.052658	1.333826	-0.072647	-0.016757	1.136816	-0.035714	-0.217987	1.313818	-0.018725	-0.025554	1.276244	0.010135
2948	29.480000	-0.125894	1.420105	-0.137402	-0.159573	1.205367	-0.192481	-0.220050	1.055300	0.065641	-0.191538	1.041594	0.009640	-0.026792	0.996361	0.202697	-0.004463	1.038226	0.183356	-0.230460	1.339228	0.000682	-0.079406	1.020249	0.202546	-0.034840	1.014524	0.233448	-0.025064	1.038606	0.224094	-0.064127	1.059743	0.187157	-0.217014	1.150310	0.097784	-0.263938	1.148862	0.059848	-0.276039	1.211238	0.055190	-0.226454	1.222683	0.084943	0.011248	1.306773	-0.043005	-0.016147	1.255684	0.018397	-0.021886	1.303741	-0.013235	0.031600	1.259725	-0.024943	-0.052481	1.333798	-0.072612	-0.016579	1.136789	-0.035678	-0.217744	1.313848	-0.018549	-0.025381	1.276228	0.010182
2949	29.490000	-0.125704	1.420077	-0.137372	-0.159370	1.205341	-0.192467	-0.220528	1.055115	0.065161	-0.191771	1.041513	0.009260	-0.028736	0.991822	0.202741	-0.005650	1.033520	0.183936	-0.230292	1.339191	0.000690	-0.081058	1.016484	0.202642	-0.036592	1.009563	0.233672	-0.026540	1.033863	0.224690	-0.065028	1.055946	0.187811	-0.217583	1.149982	0.097543	-0.264300	1.148737	0.059423	-0.276165	1.211072	0.054630	-0.226805	1.222445	0.084888	0.011456	1.306782	-0.042947	-0.015967	1.255666	0.018447	-0.021767	1.303673	-0.013315	0.031788	1.259706	-0.024896	-0.052300	1.333768	-0.072573	-0.016401	1.136757	-0.035643	-0.217491	1.313871	-0.018365	-0.025217	1.276195	0.010229
2950	29.500000	-0.125513	1.420046	-0.137334	-0.159171	1.205313	-0.192445	-0.221006	1.054927	0.064688	-0.192009	1.041425	0.008887	-0.030783	0.987187	0.202721	-0.006930	1.028702	0.184475	-0.230119	1.339153	0.000711	-0.082688	1.012697	0.202621	-0.038444	1.004574	0.233684	-0.027991	1.028833	0.225215	-0.066041	1.052014	0.188391	-0.218149	1.149654	0.097303	-0.264662	1.148621	0.058979	-0.276435	1.210989	0.054346	-0.227163	1.222151	0.084818	0.011630	1.306714	-0.042905	-0.015816	1.255588	0.018517	-0.021594	1.303643	-0.013230	0.031962	1.259678	-0.024852	-0.052118	1.333733	-0.072530	-0.016223	1.136721	-0.035606	-0.217230	1.313886	-0.018175	-0.025021	1.276245	0.010329
2951	29.510000	-0.125319	1.420015	-0.137285	-0.158978	1.205286	-0.192414	-0.221488	1.054734	0.064222	-0.192255	1.041328	0.008520	-0.032933	0.982468	0.202631	-0.008310	1.023785	0.184967	-0.229940	1.339115	0.000744	-0.084426	1.008814	0.202655	-0.040559	0.999757	0.233630	-0.029683	1.023940	0.225696	-0.067096	1.048026	0.188932	-0.218654	1.149350	0.097101	-0.265061	1.148494	0.058557	-0.276724	1.210887	0.054013	-0.227521	1.221865	0.084704	0.011797	1.306699	-0.042841	-0.015601	1.255439	0.018545	-0.021413	1.303596	-0.013172	0.032141	1.259646	-0.024814	-0.051932	1.333695	-0.072481	-0.016046	1.136680	-0.035566	-0.216961	1.313892	-0.017978	-0.024785	1.276175	0.010500
2952	29.520000	-0.125116	1.419989	-0.137225	-0.158786	1.205269	-0.192381	-0.221977	1.054536	0.063760	-0.192515	1.041223	0.008158	-0.035182	0.977680	0.202456	-0.009791	1.018786	0.185398	-0.229754	1.339080	0.000786	-0.086081	1.005083	0.202324	-0.042593	0.994730	0.233660	-0.031215	1.018818	0.225962	-0.068145	1.044009	0.189418	-0.219223	1.149067	0.096885	-0.265417	1.148375	0.058155	-0.276964	1.210814	0.053704	-0.227885	1.221577	0.084597	0.011984	1.306667	-0.042755	-0.015423	1.255378	0.018585	-0.021227	1.303565	-0.013100	0.032319	1.259609	-0.024766	-0.051741	1.333657	-0.072425	-0.015872	1.136634	-0.035530	-0.216682	1.313890	-0.017774	-0.024590	1.276110	0.010566
2953	29.530000	-0.124911	1.419960	-0.137154	-0.158601	1.205251	-0.192339	-0.222478	1.054334	0.063304	-0.192792	1.041110	0.007799	-0.037538	0.972836	0.202202	-0.011377	1.013716	0.185774	-0.229563	1.339045	0.000843	-0.087929	1.001203	0.202230	-0.044831	0.989709	0.233769	-0.033060	1.013769	0.226252	-0.069297	1.039953	0.189843	-0.219726	1.148817	0.096688	-0.265768	1.148275	0.057701	-0.277163	1.210741	0.053379	-0.228212	1.221352	0.084526	0.012090	1.306599	-0.042728	-0.015247	1.255334	0.018629	-0.021027	1.303520	-0.013030	0.032484	1.259555	-0.024714	-0.051547	1.333613	-0.072361	-0.015699	1.136582	-0.035491	-0.216395	1.313879	-0.017563	-0.024407	1.276052	0.010618
2954	29.540000	-0.124695	1.419939	-0.137070	-0.158414	1.205245	-0.192296	-0.222994	1.054128	0.062849	-0.193091	1.040989	0.007441	-0.039989	0.967955	0.201853	-0.013067	1.008596	0.186077	-0.229364	1.339013	0.000908	-0.089937	0.997223	0.202114	-0.047032	0.984623	0.233501	-0.034847	1.008595	0.226394	-0.070407	1.035801	0.190180	-0.220198	1.148591	0.096488	-0.266071	1.148164	0.057187	-0.277357	1.210647	0.053046	-0.228550	1.221121	0.084445	0.012271	1.306501	-0.042650	-0.015096	1.255259	0.018672	-0.020749	1.303453	-0.012956	0.032633	1.259495	-0.024662	-0.051346	1.333568	-0.072290	-0.015529	1.136525	-0.035454	-0.216099	1.313862	-0.017344	-0.024227	1.275972	0.010637
